<svg xmlns="http://www.w3.org/2000/svg" viewBox="0 0 84 84" width="1024" height="1024">
  <defs>
    <radialGradient id="bg" cx="50%" cy="118%" r="130%">
      <stop offset="0%" stop-color="#1F0C04"></stop>
      <stop offset="55%" stop-color="#0E0805"></stop>
      <stop offset="100%" stop-color="#0B0907"></stop>
    </radialGradient>
    <radialGradient id="core">
      <stop offset="0%" stop-color="#FFFFFF"></stop>
      <stop offset="28%" stop-color="#FFF0C4"></stop>
      <stop offset="55%" stop-color="#FFB300" stop-opacity=".55"></stop>
      <stop offset="100%" stop-color="#FF5C1A" stop-opacity="0"></stop>
    </radialGradient>
    <filter id="glow" x="-20%" y="-20%" width="140%" height="140%">
      <feDropShadow dx="0" dy="0" stdDeviation="2" flood-color="#FF8C28" flood-opacity="0.5"></feDropShadow>
    </filter>
  </defs>
  <rect width="84" height="84" fill="url(#bg)"></rect>
  <g filter="url(#glow)">
    <line x1="43.5" y1="39.7" x2="55.3" y2="21.5" stroke="#FFF6E0" stroke-width="0.71" opacity="0.78" stroke-linecap="round"></line>
    <line x1="37.2" y1="44.5" x2="21.4" y2="52.9" stroke="#FFB300" stroke-width="1.08" opacity="0.63" stroke-linecap="round"></line>
    <line x1="48.8" y1="44.6" x2="77.9" y2="55.4" stroke="#FF5C1A" stroke-width="0.65" opacity="0.87" stroke-linecap="round"></line>
    <line x1="34.7" y1="40.9" x2="10.0" y2="37.1" stroke="#FF7A33" stroke-width="1.03" opacity="0.73" stroke-linecap="round"></line>
    <line x1="47.6" y1="43.9" x2="58.1" y2="47.6" stroke="#FF7A33" stroke-width="0.95" opacity="0.48" stroke-linecap="round"></line>
    <line x1="33.9" y1="41.4" x2="20.7" y2="40.5" stroke="#FF5C1A" stroke-width="1.38" opacity="0.51" stroke-linecap="round"></line>
    <line x1="48.8" y1="41.4" x2="78.5" y2="39.0" stroke="#FF7A33" stroke-width="1.72" opacity="0.82" stroke-linecap="round"></line>
    <line x1="36.2" y1="38.7" x2="21.2" y2="30.2" stroke="#FF7A33" stroke-width="0.59" opacity="0.62" stroke-linecap="round"></line>
    <line x1="47.7" y1="44.3" x2="67.3" y2="52.3" stroke="#FF7A33" stroke-width="1.46" opacity="0.68" stroke-linecap="round"></line>
    <line x1="36.2" y1="38.3" x2="14.6" y2="24.8" stroke="#FF5C1A" stroke-width="1.58" opacity="0.79" stroke-linecap="round"></line>
    <line x1="45.2" y1="43.0" x2="67.6" y2="49.8" stroke="#FFF6E0" stroke-width="0.97" opacity="0.71" stroke-linecap="round"></line>
    <line x1="34.1" y1="40.6" x2="14.3" y2="37.1" stroke="#FF5C1A" stroke-width="1.67" opacity="0.64" stroke-linecap="round"></line>
    <line x1="43.6" y1="46.0" x2="54.5" y2="73.6" stroke="#FFB300" stroke-width="1.35" opacity="1.00" stroke-linecap="round"></line>
    <line x1="36.1" y1="38.5" x2="8.5" y2="21.8" stroke="#FF5C1A" stroke-width="0.82" opacity="0.93" stroke-linecap="round"></line>
    <line x1="45.5" y1="40.3" x2="53.7" y2="36.2" stroke="#FFD98A" stroke-width="1.64" opacity="0.45" stroke-linecap="round"></line>
    <line x1="39.4" y1="40.9" x2="15.8" y2="31.0" stroke="#FFF6E0" stroke-width="1.52" opacity="0.77" stroke-linecap="round"></line>
    <line x1="47.8" y1="39.6" x2="75.2" y2="28.2" stroke="#FF7A33" stroke-width="1.41" opacity="0.84" stroke-linecap="round"></line>
    <line x1="39.4" y1="43.5" x2="29.6" y2="49.4" stroke="#FFF6E0" stroke-width="1.66" opacity="0.50" stroke-linecap="round"></line>
    <line x1="47.8" y1="40.5" x2="74.8" y2="33.5" stroke="#FF7A33" stroke-width="1.04" opacity="0.79" stroke-linecap="round"></line>
    <line x1="34.2" y1="44.9" x2="8.2" y2="54.7" stroke="#D8321A" stroke-width="1.02" opacity="0.80" stroke-linecap="round"></line>
    <line x1="47.4" y1="43.5" x2="83.3" y2="53.4" stroke="#FFB300" stroke-width="1.16" opacity="0.97" stroke-linecap="round"></line>
    <line x1="35.5" y1="45.4" x2="8.8" y2="59.4" stroke="#FF5C1A" stroke-width="0.79" opacity="0.87" stroke-linecap="round"></line>
    <line x1="47.1" y1="41.4" x2="82.9" y2="36.9" stroke="#FFB300" stroke-width="0.64" opacity="0.93" stroke-linecap="round"></line>
    <line x1="35.9" y1="39.2" x2="5.5" y2="25.5" stroke="#FF7A33" stroke-width="0.97" opacity="0.92" stroke-linecap="round"></line>
    <line x1="42.8" y1="45.9" x2="45.6" y2="60.6" stroke="#FFB300" stroke-width="0.57" opacity="0.64" stroke-linecap="round"></line>
    <line x1="37.0" y1="41.8" x2="-1.2" y2="40.4" stroke="#FFB300" stroke-width="0.59" opacity="0.97" stroke-linecap="round"></line>
    <line x1="45.6" y1="42.3" x2="81.9" y2="45.9" stroke="#FFF6E0" stroke-width="0.84" opacity="0.94" stroke-linecap="round"></line>
    <line x1="34.1" y1="42.1" x2="4.5" y2="42.4" stroke="#FF5C1A" stroke-width="1.41" opacity="0.81" stroke-linecap="round"></line>
    <line x1="46.0" y1="39.5" x2="60.3" y2="30.6" stroke="#FFB300" stroke-width="1.04" opacity="0.61" stroke-linecap="round"></line>
    <line x1="38.2" y1="44.3" x2="22.7" y2="53.9" stroke="#FFB300" stroke-width="1.27" opacity="0.64" stroke-linecap="round"></line>
    <line x1="40.6" y1="45.8" x2="34.6" y2="62.2" stroke="#FFB300" stroke-width="1.39" opacity="0.70" stroke-linecap="round"></line>
    <line x1="33.6" y1="40.7" x2="-3.0" y2="35.0" stroke="#D8321A" stroke-width="1.08" opacity="0.95" stroke-linecap="round"></line>
    <line x1="46.7" y1="38.9" x2="63.2" y2="28.2" stroke="#FF7A33" stroke-width="1.54" opacity="0.67" stroke-linecap="round"></line>
    <line x1="35.6" y1="43.0" x2="1.0" y2="48.7" stroke="#FF7A33" stroke-width="1.59" opacity="0.92" stroke-linecap="round"></line>
    <line x1="47.5" y1="43.6" x2="73.6" y2="51.4" stroke="#FFB300" stroke-width="0.84" opacity="0.78" stroke-linecap="round"></line>
    <line x1="37.1" y1="45.2" x2="21.3" y2="55.6" stroke="#FF7A33" stroke-width="1.04" opacity="0.66" stroke-linecap="round"></line>
    <line x1="46.4" y1="41.8" x2="61.1" y2="41.0" stroke="#FFD98A" stroke-width="1.30" opacity="0.54" stroke-linecap="round"></line>
    <line x1="39.3" y1="43.7" x2="31.0" y2="48.9" stroke="#FFF6E0" stroke-width="1.37" opacity="0.47" stroke-linecap="round"></line>
    <line x1="46.7" y1="40.9" x2="83.4" y2="32.5" stroke="#FFB300" stroke-width="0.64" opacity="0.97" stroke-linecap="round"></line>
    <line x1="37.1" y1="39.5" x2="14.8" y2="28.1" stroke="#FF7A33" stroke-width="1.47" opacity="0.77" stroke-linecap="round"></line>
    <line x1="46.2" y1="39.9" x2="62.5" y2="32.1" stroke="#FFB300" stroke-width="0.63" opacity="0.63" stroke-linecap="round"></line>
    <line x1="35.5" y1="41.5" x2="12.2" y2="39.8" stroke="#FF7A33" stroke-width="1.50" opacity="0.70" stroke-linecap="round"></line>
    <line x1="40.5" y1="46.1" x2="35.9" y2="58.7" stroke="#FFB300" stroke-width="0.73" opacity="0.60" stroke-linecap="round"></line>
    <line x1="33.6" y1="41.5" x2="17.5" y2="40.4" stroke="#D8321A" stroke-width="1.70" opacity="0.56" stroke-linecap="round"></line>
    <line x1="45.2" y1="41.9" x2="83.6" y2="40.8" stroke="#FFF6E0" stroke-width="1.72" opacity="0.97" stroke-linecap="round"></line>
    <line x1="33.7" y1="39.7" x2="7.0" y2="32.3" stroke="#D8321A" stroke-width="1.65" opacity="0.79" stroke-linecap="round"></line>
    <line x1="46.5" y1="42.7" x2="84.5" y2="48.9" stroke="#FFB300" stroke-width="1.12" opacity="0.98" stroke-linecap="round"></line>
    <line x1="37.6" y1="42.2" x2="14.3" y2="43.5" stroke="#FFD98A" stroke-width="1.35" opacity="0.70" stroke-linecap="round"></line>
    <line x1="42.6" y1="44.2" x2="45.2" y2="54.3" stroke="#FFF6E0" stroke-width="0.95" opacity="0.53" stroke-linecap="round"></line>
    <line x1="36.6" y1="41.4" x2="19.3" y2="39.3" stroke="#FFB300" stroke-width="1.77" opacity="0.59" stroke-linecap="round"></line>
    <line x1="47.7" y1="38.5" x2="75.5" y2="21.4" stroke="#FF7A33" stroke-width="1.06" opacity="0.94" stroke-linecap="round"></line>
    <line x1="37.3" y1="42.2" x2="7.2" y2="43.4" stroke="#FFB300" stroke-width="1.18" opacity="0.82" stroke-linecap="round"></line>
    <circle cx="78.0" cy="48.4" r="0.86" fill="#FF5C1A" opacity="0.62"></circle>
    <circle cx="10.5" cy="56.2" r="1.48" fill="#FF5C1A" opacity="0.90"></circle>
    <circle cx="69.8" cy="43.5" r="1.30" fill="#FFB300" opacity="0.82"></circle>
    <circle cx="20.1" cy="38.9" r="1.01" fill="#FFD98A" opacity="0.69"></circle>
    <circle cx="60.9" cy="24.6" r="1.70" fill="#FF7A33" opacity="1.00"></circle>
    <circle cx="14.4" cy="60.7" r="1.68" fill="#FF5C1A" opacity="0.99"></circle>
    <circle cx="57.0" cy="29.9" r="1.36" fill="#FFD98A" opacity="0.85"></circle>
    <circle cx="9.7" cy="58.1" r="0.79" fill="#FF5C1A" opacity="0.59"></circle>
    <circle cx="68.8" cy="61.4" r="1.62" fill="#FF5C1A" opacity="0.96"></circle>
    <circle cx="15.0" cy="47.4" r="1.24" fill="#FFB300" opacity="0.79"></circle>
    <circle cx="60.0" cy="33.3" r="1.51" fill="#FFD98A" opacity="0.91"></circle>
    <circle cx="8.1" cy="55.5" r="0.83" fill="#FF5C1A" opacity="0.61"></circle>
    <circle cx="63.8" cy="30.8" r="1.01" fill="#FFB300" opacity="0.69"></circle>
    <circle cx="5.5" cy="40.4" r="0.97" fill="#FF5C1A" opacity="0.67"></circle>
    <circle cx="79.8" cy="47.1" r="1.13" fill="#FF5C1A" opacity="0.74"></circle>
    <circle cx="12.3" cy="26.6" r="0.85" fill="#FF5C1A" opacity="0.61"></circle>
    <circle cx="67.3" cy="35.1" r="0.92" fill="#FFB300" opacity="0.65"></circle>
    <circle cx="14.9" cy="62.6" r="1.25" fill="#FF5C1A" opacity="0.79"></circle>
    <circle cx="69.6" cy="41.6" r="0.91" fill="#FFB300" opacity="0.64"></circle>
    <circle cx="20.7" cy="52.9" r="1.42" fill="#FFB300" opacity="0.87"></circle>
  </g>
  <circle cx="42" cy="42" r="16" fill="url(#core)"></circle>
</svg>